<svg width="20" height="20" viewBox="0 0 20 20" fill="none" xmlns="http://www.w3.org/2000/svg">
<g id="Icon / User 1">
<path id="Union" fill-rule="evenodd" clip-rule="evenodd" d="M9.99999 2.5C8.89493 2.5 7.83512 2.93899 7.05372 3.72039C6.27231 4.50179 5.83333 5.5616 5.83333 6.66667C5.83333 7.77174 6.27231 8.83154 7.05372 9.61294C7.10868 9.66791 7.16503 9.72119 7.22267 9.77273C6.50891 10.0998 5.8518 10.5534 5.28595 11.1193C4.03571 12.3695 3.33333 14.0652 3.33333 15.8333V16.6667C3.33333 17.1269 3.70642 17.5 4.16666 17.5C4.6269 17.5 4.99999 17.1269 4.99999 16.6667V15.8333C4.99999 14.5073 5.52678 13.2355 6.46446 12.2978C7.40214 11.3601 8.67391 10.8333 9.99999 10.8333C11.3261 10.8333 12.5978 11.3601 13.5355 12.2978C14.4732 13.2355 15 14.5073 15 15.8333V16.6667C15 17.1269 15.3731 17.5 15.8333 17.5C16.2936 17.5 16.6667 17.1269 16.6667 16.6667V15.8333C16.6667 14.0652 15.9643 12.3695 14.714 11.1193C14.1482 10.5534 13.4911 10.0998 12.7773 9.77273C12.835 9.72119 12.8913 9.66791 12.9463 9.61294C13.7277 8.83154 14.1667 7.77174 14.1667 6.66667C14.1667 5.5616 13.7277 4.50179 12.9463 3.72039C12.1649 2.93899 11.1051 2.5 9.99999 2.5ZM8.23223 4.8989C8.70107 4.43006 9.33695 4.16667 9.99999 4.16667C10.663 4.16667 11.2989 4.43006 11.7678 4.8989C12.2366 5.36774 12.5 6.00363 12.5 6.66667C12.5 7.32971 12.2366 7.96559 11.7678 8.43443C11.2989 8.90327 10.663 9.16667 9.99999 9.16667C9.33695 9.16667 8.70107 8.90327 8.23223 8.43443C7.76339 7.96559 7.49999 7.32971 7.49999 6.66667C7.49999 6.00363 7.76339 5.36774 8.23223 4.8989Z" fill="#757575"/>
</g>
</svg>
